<svg width="26" height="21" viewBox="0 0 26 21" fill="none" xmlns="http://www.w3.org/2000/svg">
<path d="M16.682 11.1523C16.9069 10.5269 16.9528 9.97906 16.9528 9.55788C16.9528 9.43754 19.2091 9.55788 19.2091 9.55788L20.6531 9.79855C20.6531 9.79855 21.6166 10.0216 22.2175 10.2197C22.8536 10.4295 23.2328 10.5151 23.812 10.8515C24.2692 11.117 24.5613 11.2537 24.895 11.6638C25.1406 11.9656 25.281 12.159 25.3764 12.5362C25.4685 12.9007 25.4885 13.1401 25.3764 13.4989C25.2488 13.9071 24.9943 14.1119 24.6543 14.3714C24.2497 14.6802 23.4811 14.7925 23.4811 14.7925H22.2175C22.2175 14.7925 21.2548 14.6722 21.0141 14.5819C20.9742 14.567 21.0644 15.0783 20.954 15.3641C20.7862 15.7984 20.5233 16.0297 20.0815 16.1764C19.747 16.2875 19.5246 16.2455 19.179 16.1764C18.6217 16.0649 17.9756 15.4243 17.9756 15.4243C17.9756 15.4243 17.2103 14.6772 16.8024 14.1307C16.3915 13.5802 16.1913 13.168 15.8904 12.6265C15.7851 12.4368 16.4639 11.759 16.682 11.1523Z" fill="#A25714"/>
<path d="M9.94321 7.81302C10.214 7.51218 10.6049 7.05464 10.9059 6.76007C10.9919 6.67591 9.28136 4.71435 9.28136 4.71435L7.98774 3.60123C7.98774 3.60123 7.28604 3.07986 6.7242 2.78896C6.12942 2.481 5.86547 2.18549 5.21999 2.00676C4.71047 1.86569 4.34754 1.70592 3.77594 1.70592C3.38682 1.70592 3.14645 1.73008 2.8101 1.92575C2.48513 2.1148 2.30008 2.26793 2.12202 2.59904C1.91947 2.97569 1.95113 3.30084 2.00342 3.72529C2.06567 4.23047 2.60265 4.86477 2.60265 4.86477L3.38484 5.7673C3.38484 5.7673 4.05455 6.38043 4.28737 6.48932C4.32605 6.50741 3.84283 6.78214 3.71577 7.06092C3.52271 7.48451 3.57178 7.93619 3.77594 8.35454C3.93052 8.67129 4.26701 8.87788 4.55813 9.07656C5.02755 9.39693 5.91192 9.49774 5.91192 9.49774C5.91192 9.49774 6.98084 9.58843 7.65681 9.49774C8.33766 9.4064 9.01059 9.3774 9.28136 9.25707C9.42388 9.19373 9.51251 8.29158 9.94321 7.81302Z" fill="#A25714"/>
<path d="M14.4558 13.5516C14.4438 13.4312 15.2243 13.0273 15.2681 13.1003C15.4486 13.4011 15.5689 13.8899 15.5689 13.8899C15.5689 13.8899 15.7854 14.6146 15.8397 15.0932C15.9138 15.7474 15.9025 16.1312 15.7795 16.778C15.6462 17.4791 15.4924 17.8678 15.1477 18.4928C14.78 19.1596 14.5031 19.4682 13.9917 19.9796C13.8438 20.1276 13.7338 20.2076 13.5705 20.3106C13.491 20.3607 13.3666 20.4 13.2825 20.358C13.1622 20.2978 13.1204 20.2744 13.0719 20.1775C13.0118 20.0571 13.0074 19.8017 13.0719 19.5758C13.2524 18.944 13.5571 18.6717 13.824 18.0716C14.0705 17.5174 14.2412 17.214 14.3956 16.6275C14.5853 15.9074 14.6091 15.4762 14.5761 14.7322C14.5546 14.2459 14.4859 13.8524 14.4558 13.5516Z" fill="#A25714"/>
<path d="M9.28141 11.1221C9.37816 11.0495 9.24643 10.144 9.16108 10.1594C8.80914 10.223 8.13822 10.4172 8.13822 10.4172C8.13822 10.4172 7.44467 10.6879 7.05518 10.9717C6.52287 11.3596 5.8735 11.7881 5.4908 12.3255C5.07594 12.9081 5.18494 12.6858 4.82894 13.3183C4.49028 13.9199 4.19411 14.4586 4.19411 15.1534L4.19411 15.6949C4.19411 15.7938 4.30828 15.8754 4.40776 15.8754C4.55818 15.8754 4.73751 15.7559 4.82894 15.6949C4.91919 15.6348 5.15986 15.4542 5.34037 15.2437C5.56632 14.9801 5.60245 14.7487 5.91198 14.1606C6.21282 13.589 6.48358 13.3183 6.87468 12.9272C7.40358 12.3983 7.67239 12.2238 8.24024 11.7424C8.61144 11.4278 9.03953 11.3036 9.28141 11.1221Z" fill="#A25714"/>
<path d="M8.49926 12.2051C8.84761 11.9604 9.42436 11.6467 9.46195 11.6937C9.58229 11.8441 10.0035 12.536 10.0035 12.536C10.0035 12.536 10.3188 12.9406 10.6052 13.1678C11.1196 13.576 11.4943 13.7369 12.1394 13.8597C12.7712 13.9801 13.6737 13.9199 13.8843 13.9199C13.9445 13.9199 13.9144 15.0932 13.9144 15.0932C13.9144 15.0932 13.8543 16.2966 13.7941 16.2966C13.5167 16.2966 12.3502 16.3916 11.4174 16.1462C10.7759 15.9773 10.4199 15.8336 9.82296 15.4843C9.27502 15.1637 8.95617 14.9484 8.49926 14.4915C8.04234 14.0346 7.53656 13.3784 7.50648 13.1678C7.48946 13.0487 8.05734 12.5155 8.49926 12.2051Z" fill="#A25714"/>
<path d="M6.60384 15.5146C6.72387 14.959 6.98372 14.0776 7.02502 14.1307C7.23561 14.4015 7.65314 14.9616 8.13814 15.3942C8.66339 15.8628 8.97747 16.0594 9.61227 16.387C10.3123 16.7483 10.7279 16.9436 11.5076 17.079C12.1336 17.1877 13.102 17.1391 13.1321 17.1993C13.2007 17.3365 12.4468 18.0714 11.9288 18.5531C11.3385 19.1019 10.9749 19.3885 10.2741 19.7865C9.61953 20.1584 9.22927 20.3552 8.49915 20.5387C8.03828 20.6545 7.41612 20.7793 7.29578 20.7192C7.10552 20.624 6.75426 19.3052 6.75426 19.3052C6.75426 19.3052 6.54006 18.3789 6.48351 17.7709C6.40178 16.8923 6.41753 16.3771 6.60384 15.5146Z" fill="#A25714"/>
<path d="M17.2537 4.29315C17.0823 4.37376 16.7423 4.59399 16.7423 4.59399L17.1635 5.10542L17.5245 4.89484C17.5245 4.89484 17.8101 4.75878 18.0058 4.71433C18.3266 4.6415 18.5306 4.62881 18.8482 4.71433C19.021 4.76085 19.2694 4.89484 19.2694 4.89484C19.2694 4.89484 19.5101 5.04526 19.7206 5.04526C19.8217 5.04526 19.8776 4.98047 19.9312 4.89484C20.0061 4.77538 20.0132 4.64855 19.9312 4.53383C19.7808 4.32323 19.6304 4.29315 19.3897 4.17281C19.1938 4.07486 19.0916 4.0438 18.8783 4.02239C18.551 3.98954 18.3306 4.00011 18.0058 4.05248C17.7014 4.10158 17.5328 4.16193 17.2537 4.29315Z" fill="#A25714"/>
<path d="M15.1479 3.36296C15.1632 3.54717 15.1479 3.78162 15.1479 3.78162L14.5161 3.75154L14.5161 3.36296C14.5161 3.36296 14.4248 3.08758 14.3356 2.90918C14.1852 2.60833 14.088 2.48127 13.8543 2.27741C13.6203 2.0734 13.2225 1.88631 13.2225 1.88631C13.2225 1.88631 12.9364 1.78418 12.8417 1.59607C12.7963 1.5058 12.8208 1.43093 12.8623 1.34996C12.9192 1.23875 13.0382 1.22487 13.154 1.21137L13.1595 1.21073C13.3929 1.18344 13.6538 1.32665 13.8543 1.49522C14.0174 1.63242 14.3356 1.82614 14.5161 2.00665C14.7484 2.23895 14.847 2.42783 14.9975 2.72867C15.1349 3.00358 15.123 3.06307 15.1479 3.36296Z" fill="#A25714"/>
<path d="M15.5691 3.87191C15.5691 3.87191 15.3917 3.79753 15.2984 3.78166C15.1916 3.76351 15.1058 3.75157 14.9975 3.75157C14.6365 3.75157 14.4624 3.70354 14.1251 3.75157C13.9585 3.77528 13.7039 3.84182 13.7039 3.84182C13.7039 3.84182 13.3589 3.93903 13.1624 4.05241C12.9669 4.16518 12.7111 4.41342 12.7111 4.41342C12.7111 4.41342 12.3187 4.76485 12.1395 5.04519C11.9866 5.28442 11.9289 5.4062 11.8387 5.70705C11.7947 5.85377 11.7785 6.12823 11.8688 6.09814C11.9964 6.0556 12.215 5.96623 12.4704 5.91764C12.8282 5.84959 13.0404 5.88412 13.403 5.91764C13.7358 5.94839 13.9247 5.97419 14.2454 6.06806C14.7749 6.22302 15.0689 6.3671 15.5089 6.69983C15.8403 6.95034 16.0174 7.11552 16.2611 7.45193C16.5292 7.82217 16.6221 8.23412 16.7725 8.50488C16.8327 8.61318 17.1942 8.04394 17.3742 7.69261C17.4946 7.45763 17.5687 7.32079 17.6148 7.06084C17.658 6.81792 17.6148 6.42907 17.6148 6.42907C17.6148 6.42907 17.5878 6.09241 17.5246 5.88755C17.4796 5.74161 17.3742 5.52654 17.3742 5.52654C17.3742 5.52654 17.2945 5.31869 17.2237 5.19561C17.1441 5.05707 16.9831 4.86469 16.9831 4.86469C16.9831 4.86469 16.8512 4.71123 16.7725 4.62401C16.728 4.57467 16.6521 4.50368 16.6521 4.50368C16.6521 4.50368 16.5078 4.39049 16.4115 4.32317C16.2859 4.23539 16.0805 4.11258 16.0805 4.11258L15.8399 3.99224L15.5691 3.87191Z" fill="#A25714"/>
<path d="M14.9673 7.27148C14.586 7.01746 14.3327 6.91445 13.8843 6.82022C13.3899 6.71631 13.089 6.73747 12.5906 6.82022C12.3152 6.86595 12.1564 6.8931 11.8987 7.00072C11.5319 7.15392 11.3521 7.3066 11.0564 7.57232C10.7083 7.88505 10.5118 8.0856 10.3042 8.50493C10.136 8.84482 10.0436 8.96728 9.97332 9.34729C9.89212 9.78629 9.88231 10.1437 9.97332 10.5807C10.0677 11.0339 10.3945 11.6939 10.3945 11.6939C10.3945 11.6939 10.8214 12.2582 11.1767 12.5061C11.5455 12.7635 11.8128 12.8264 12.2597 12.9273C12.8327 13.0567 13.1955 13.0456 13.7639 12.8972C14.2929 12.7592 14.5804 12.6491 14.9974 12.2955C15.3865 11.9657 15.5766 11.7264 15.8097 11.2727C16.0015 10.8992 16.0699 10.6637 16.1406 10.2498C16.2237 9.76342 16.2553 9.46619 16.1406 8.98628C16.0477 8.59761 15.9455 8.39067 15.7194 8.05367C15.4833 7.70174 15.32 7.50641 14.9673 7.27148Z" fill="#A25714"/>
</svg>
