<svg width="132" height="115" viewBox="0 0 132 115" fill="none" xmlns="http://www.w3.org/2000/svg">
<path d="M3 57.0763L34.2629 3H96.4506L128.85 57.0763L96.4506 111.66H34.2629L3 57.0763Z" fill="#FAC131" stroke="#A25714" stroke-width="5" stroke-linejoin="round"/>
<path d="M75.8615 59.2811C76.4391 57.6748 76.557 56.2676 76.557 55.1858C76.557 54.8767 82.3523 55.1858 82.3523 55.1858L86.0613 55.804C86.0613 55.804 88.5361 56.3769 90.0794 56.8857C91.7132 57.4244 92.6872 57.6445 94.1748 58.5084C95.3491 59.1904 96.0995 59.5415 96.9566 60.5948C97.5874 61.37 97.9479 61.8666 98.1929 62.8356C98.4296 63.7718 98.4809 64.3866 98.1929 65.3083C97.8653 66.3567 97.2115 66.8827 96.3384 67.5492C95.2991 68.3424 93.3248 68.6309 93.3248 68.6309H90.0794C90.0794 68.6309 87.6067 68.3219 86.9886 68.0901C86.8859 68.0515 87.1176 69.3651 86.834 70.0991C86.4032 71.2145 85.728 71.8087 84.5932 72.1854C83.734 72.4706 83.1628 72.363 82.2751 72.1854C80.8437 71.8991 79.1842 70.2536 79.1842 70.2536C79.1842 70.2536 77.2185 68.3348 76.1707 66.931C75.1153 65.517 74.6011 64.4583 73.8284 63.0674C73.5578 62.5803 75.3014 60.8392 75.8615 59.2811Z" fill="#A25714"/>
<path d="M58.5528 50.7041C59.2483 49.9313 60.2523 48.7562 61.0255 47.9996C61.2464 47.7834 56.8529 42.7451 56.8529 42.7451L53.5302 39.8861C53.5302 39.8861 51.7279 38.547 50.2848 37.7998C48.7572 37.0088 48.0792 36.2498 46.4213 35.7907C45.1126 35.4284 44.1804 35.018 42.7123 35.018C41.7128 35.018 41.0954 35.0801 40.2315 35.5826C39.3968 36.0682 38.9215 36.4615 38.4642 37.312C37.9439 38.2794 38.0252 39.1146 38.1596 40.2047C38.3194 41.5023 39.6987 43.1315 39.6987 43.1315L41.7077 45.4496C41.7077 45.4496 43.4279 47.0245 44.0259 47.3041C44.1252 47.3506 42.8841 48.0563 42.5577 48.7723C42.0618 49.8603 42.1879 51.0204 42.7123 52.0949C43.1093 52.9085 43.9736 53.4391 44.7213 53.9495C45.927 54.7723 48.1985 55.0312 48.1985 55.0312C48.1985 55.0312 50.944 55.2642 52.6802 55.0312C54.429 54.7966 56.1574 54.7222 56.8529 54.4131C57.2189 54.2504 57.4466 51.9332 58.5528 50.7041Z" fill="#A25714"/>
<path d="M70.1435 65.4439C70.1126 65.1348 72.1174 64.0974 72.2298 64.2848C72.6935 65.0575 73.0025 66.3128 73.0025 66.3128C73.0025 66.3128 73.5587 68.1743 73.698 69.4036C73.8884 71.0838 73.8593 72.0696 73.5434 73.7308C73.201 75.5316 72.8059 76.5301 71.9207 78.1353C70.9763 79.848 70.265 80.6407 68.9514 81.9543C68.5715 82.3342 68.289 82.5397 67.8696 82.8043C67.6654 82.9331 67.3459 83.0341 67.1299 82.9261C66.8209 82.7716 66.7135 82.7113 66.589 82.4625C66.4345 82.1534 66.4232 81.4973 66.589 80.917C67.0527 79.2944 67.8352 78.5948 68.5208 77.0535C69.154 75.6301 69.5923 74.8509 69.989 73.3445C70.476 71.4947 70.5372 70.3873 70.4526 68.4764C70.3973 67.2272 70.2208 66.2166 70.1435 65.4439Z" fill="#A25714"/>
<path d="M56.8529 59.2039C57.1014 59.0174 56.763 56.6916 56.5438 56.7312C55.6398 56.8944 53.9166 57.3934 53.9166 57.3934C53.9166 57.3934 52.1352 58.0886 51.1348 58.8175C49.7676 59.8137 48.0997 60.9144 47.1167 62.2947C46.0511 63.791 46.3311 63.2201 45.4167 64.8447C44.5469 66.3901 43.7862 67.7735 43.7862 69.5582L43.7862 70.9491C43.7862 71.2031 44.0794 71.4127 44.3349 71.4127C44.7213 71.4127 45.1819 71.1057 45.4167 70.9491C45.6485 70.7945 46.2667 70.3309 46.7303 69.79C47.3107 69.113 47.4035 68.5188 48.1985 67.0083C48.9712 65.5401 49.6667 64.8447 50.6712 63.8402C52.0297 62.4817 52.7201 62.0336 54.1786 60.7972C55.1321 59.9889 56.2316 59.6701 56.8529 59.2039Z" fill="#A25714"/>
<path d="M54.8439 61.9856C55.7386 61.3571 57.22 60.5513 57.3165 60.672C57.6256 61.0584 58.7074 62.8356 58.7074 62.8356C58.7074 62.8356 59.5174 63.8747 60.2528 64.4583C61.5743 65.5068 62.5366 65.9199 64.1937 66.2355C65.8164 66.5446 68.1345 66.3901 68.6754 66.3901C68.8299 66.3901 68.7527 69.4036 68.7527 69.4036C68.7527 69.4036 68.5981 72.4945 68.4436 72.4945C67.7312 72.4945 64.735 72.7386 62.3392 72.1081C60.6914 71.6745 59.7771 71.3054 58.2438 70.4082C56.8364 69.5846 56.0175 69.0318 54.8439 67.8582C53.6703 66.6846 52.3712 64.9992 52.2939 64.4583C52.2502 64.1523 53.7088 62.783 54.8439 61.9856Z" fill="#A25714"/>
<path d="M49.9758 70.4854C50.2841 69.0583 50.9515 66.7946 51.0576 66.931C51.5985 67.6264 52.6709 69.0652 53.9166 70.1764C55.2657 71.3797 56.0724 71.8849 57.7029 72.7263C59.501 73.6542 60.5683 74.1559 62.571 74.5035C64.1789 74.7827 66.6663 74.6581 66.7436 74.8126C66.9198 75.165 64.9833 77.0527 63.6528 78.2898C62.1367 79.6994 61.2028 80.4355 59.4029 81.4579C57.7215 82.413 56.7192 82.9184 54.8439 83.3897C53.6601 83.6872 52.0621 84.0079 51.753 83.8533C51.2643 83.609 50.3621 80.2216 50.3621 80.2216C50.3621 80.2216 49.812 77.8423 49.6667 76.2808C49.4568 74.0241 49.4972 72.7008 49.9758 70.4854Z" fill="#A25714"/>
<path d="M77.3297 41.6633C76.8894 41.8704 76.0161 42.436 76.0161 42.436L77.0979 43.7496L78.0252 43.2088C78.0252 43.2088 78.7586 42.8593 79.2615 42.7451C80.0855 42.5581 80.6092 42.5255 81.4251 42.7451C81.8689 42.8646 82.5069 43.2088 82.5069 43.2088C82.5069 43.2088 83.1251 43.5951 83.6659 43.5951C83.9255 43.5951 84.069 43.4287 84.2068 43.2088C84.3992 42.9019 84.4173 42.5762 84.2068 42.2815C83.8205 41.7406 83.4341 41.6633 82.816 41.3542C82.3128 41.1027 82.0503 41.0229 81.5024 40.9679C80.6616 40.8835 80.0957 40.9106 79.2615 41.0452C78.4795 41.1713 78.0465 41.3263 77.3297 41.6633Z" fill="#A25714"/>
<path d="M71.9208 39.2744C71.9601 39.7476 71.9208 40.3497 71.9208 40.3497L70.2981 40.2725L70.2981 39.2744C70.2981 39.2744 70.0636 38.5671 69.8345 38.1089C69.4481 37.3362 69.1986 37.0098 68.5981 36.4862C67.9973 35.9622 66.9754 35.4816 66.9754 35.4816C66.9754 35.4816 66.2406 35.2193 65.9974 34.7362C65.8807 34.5043 65.9437 34.312 66.0502 34.104C66.1965 33.8184 66.5022 33.7827 66.7995 33.7481L66.8135 33.7464C67.4132 33.6763 68.0834 34.0442 68.5981 34.4771C69.0171 34.8295 69.8345 35.3271 70.2981 35.7907C70.8948 36.3874 71.1481 36.8725 71.5344 37.6452C71.8875 38.3513 71.8568 38.5041 71.9208 39.2744Z" fill="#A25714"/>
<path d="M73.0026 40.5816C73.0026 40.5816 72.547 40.3905 72.3072 40.3498C72.0329 40.3031 71.8127 40.2725 71.5345 40.2725C70.6072 40.2725 70.16 40.1491 69.2936 40.2725C68.8659 40.3334 68.2118 40.5043 68.2118 40.5043C68.2118 40.5043 67.3258 40.754 66.8209 41.0452C66.3188 41.3348 65.6619 41.9724 65.6619 41.9724C65.6619 41.9724 64.6539 42.8751 64.1937 43.5951C63.801 44.2096 63.6528 44.5224 63.421 45.2951C63.3079 45.672 63.2665 46.3769 63.4983 46.2996C63.8261 46.1903 64.3875 45.9608 65.0437 45.836C65.9627 45.6612 66.5076 45.7499 67.4391 45.836C68.2938 45.915 68.7789 45.9813 69.6027 46.2224C70.9626 46.6204 71.7178 46.9904 72.8481 47.845C73.6991 48.4885 74.154 48.9128 74.7798 49.7768C75.4686 50.7278 75.7071 51.7859 76.0935 52.4813C76.248 52.7595 77.1766 51.2974 77.6389 50.395C77.9481 49.7915 78.1385 49.44 78.257 48.7723C78.3679 48.1484 78.257 47.1496 78.257 47.1496C78.257 47.1496 78.1876 46.2849 78.0252 45.7587C77.9096 45.3839 77.6389 44.8315 77.6389 44.8315C77.6389 44.8315 77.4342 44.2976 77.2525 43.9815C77.048 43.6257 76.6344 43.1315 76.6344 43.1315C76.6344 43.1315 76.2956 42.7374 76.0935 42.5133C75.9791 42.3866 75.7844 42.2043 75.7844 42.2043C75.7844 42.2043 75.4135 41.9135 75.1662 41.7406C74.8438 41.5152 74.3162 41.1997 74.3162 41.1997L73.6981 40.8906L73.0026 40.5816Z" fill="#A25714"/>
<path d="M71.4571 49.3132C70.4776 48.6607 69.8271 48.3962 68.6754 48.1541C67.4055 47.8872 66.6328 47.9416 65.3527 48.1541C64.6451 48.2716 64.2373 48.3413 63.5755 48.6177C62.6332 49.0112 62.1714 49.4034 61.4119 50.0859C60.518 50.8891 60.0132 51.4043 59.4801 52.4813C59.048 53.3543 58.8106 53.6688 58.6301 54.6449C58.4216 55.7725 58.3964 56.6904 58.6301 57.813C58.8724 58.9768 59.7119 60.672 59.7119 60.672C59.7119 60.672 60.8083 62.1215 61.721 62.7583C62.6681 63.4193 63.3547 63.5809 64.5027 63.8401C65.9745 64.1725 66.9064 64.1439 68.3663 63.7629C69.7249 63.4083 70.4634 63.1254 71.5344 62.2175C72.5337 61.3702 73.0222 60.7557 73.6207 59.5902C74.1133 58.631 74.2891 58.026 74.4707 56.963C74.6841 55.7137 74.7654 54.9503 74.4707 53.7176C74.232 52.7193 73.9695 52.1878 73.3889 51.3222C72.7826 50.4183 72.363 49.9166 71.4571 49.3132Z" fill="#A25714"/>
</svg>
